<svg width="66" height="80" viewBox="0 0 66 80" fill="none" xmlns="http://www.w3.org/2000/svg">
<path fill-rule="evenodd" clip-rule="evenodd" d="M46.7231 0.230479C43.4778 0.942231 39.8374 2.92264 37.6034 5.1918C34.1906 8.65837 32.4255 12.8212 32.4255 17.4027V18.4848L34.1834 18.3912C37.5915 18.2097 39.9515 17.1355 42.6366 14.5436C46.5585 10.7578 48.508 6.54483 48.5166 1.83602L48.52 0L48.0903 0.0123443C47.8541 0.0192196 47.2387 0.117349 46.7231 0.230479ZM44.2153 19.6042C42.4796 19.9195 40.5143 20.5302 37.3292 21.744C34.4694 22.8339 34.3356 22.8686 32.9724 22.8723C31.6769 22.8759 31.4308 22.8229 29.8473 22.1982C24.2623 19.9948 21.9399 19.4439 18.8311 19.5845C16.0341 19.7111 14.28 20.208 11.4222 21.6837C5.80023 24.5868 1.69785 30.6074 0.370447 37.9032C-0.123795 40.62 -0.123482 45.7124 0.371385 48.9085C1.79848 58.1282 5.02598 65.7229 10.5761 72.9213C14.9088 78.541 18.5064 80.635 22.4565 79.8362C23.5946 79.6062 24.4717 79.3274 27.1559 78.3427C33.0312 76.1876 35.1605 76.2238 41.5394 78.5874C44.1848 79.5677 45.463 79.8475 47.2967 79.8475C51.59 79.8475 54.3844 77.7303 59.0333 70.9556C61.5483 67.2905 63.5978 63.4076 64.7478 60.1292L65.2242 58.771L64.1772 58.1893C60.4693 56.129 58.0345 53.7598 56.4379 50.6589C54.458 46.8131 53.9481 41.7935 55.0933 37.4214C55.4914 35.9014 56.2509 34.23 57.1757 32.8389C58.1002 31.4485 60.2828 29.2595 61.816 28.1851C62.8235 27.4791 63.0234 27.2725 62.906 27.0594C62.2816 25.9259 60.2612 23.865 58.7505 22.8207C56.5246 21.2819 53.5848 20.1186 50.6481 19.6142C48.9855 19.3287 45.7594 19.3237 44.2153 19.6042Z" fill="#232831"/>
</svg>
